<svg width="20" height="20" viewBox="0 0 20 20" fill="none" xmlns="http://www.w3.org/2000/svg">
<path d="M4.49834 4.50101C5.69237 3.30697 7.31143 2.63555 9.00004 2.63415C10.2588 2.63468 11.4892 3.00841 12.5356 3.70808C13.5821 4.40777 14.3976 5.40201 14.8791 6.56511C15.3606 7.72821 15.4864 9.00795 15.2407 10.2426C14.995 11.4772 14.3888 12.6112 13.4987 13.5013C12.6085 14.3915 11.4745 14.9977 10.2399 15.2434C9.00528 15.4891 7.72554 15.3633 6.56244 14.8818C5.39934 14.4003 4.4051 13.5848 3.70541 12.5383C3.00574 11.4919 2.63202 10.2615 2.63148 9.00271C2.63288 7.31409 3.3043 5.69504 4.49834 4.50101ZM9 1.9C7.59587 1.9 6.22326 2.31634 5.05573 3.09638C3.8882 3.87642 2.97818 4.98512 2.44072 6.28232C1.90326 7.57952 1.76249 9.00695 2.03623 10.3841C2.30997 11.7613 2.98591 13.0264 3.97859 14.0195C4.97127 15.0126 6.23611 15.689 7.6132 15.9632C8.99029 16.2375 10.4178 16.0973 11.7152 15.5603C13.0126 15.0234 14.1216 14.1137 14.9021 12.9465C15.6826 11.7793 16.0995 10.4068 16.1 9.00271C16.1004 8.07009 15.917 7.14655 15.5603 6.28482C15.2037 5.4231 14.6807 4.64008 14.0214 3.9805C13.3621 3.32092 12.5793 2.79769 11.7177 2.44071C10.8561 2.08374 9.93261 1.9 9 1.9Z" fill="#222426" stroke="#222426" stroke-width="0.2"/>
<path d="M17.7051 19.1C17.782 19.101 17.8576 19.0792 17.9221 19.0373C17.987 18.9952 18.0379 18.9348 18.0684 18.8637C18.0989 18.7926 18.1076 18.7141 18.0934 18.6381C18.0792 18.5621 18.0427 18.492 17.9886 18.4367L17.9878 18.4359L13.5489 13.999L13.5491 13.9988L13.5433 13.9939C13.4688 13.9299 13.3728 13.8965 13.2747 13.9003C13.1766 13.9041 13.0835 13.9448 13.0141 14.0143C12.9447 14.0838 12.9041 14.177 12.9003 14.2751C12.8965 14.3733 12.9298 14.4693 12.9937 14.5439L12.9934 14.5441L12.9989 14.5496L17.4291 18.9865L17.4294 18.9868C17.4658 19.0229 17.509 19.0515 17.5565 19.071C17.6037 19.0903 17.6542 19.1001 17.7051 19.1ZM17.7051 19.1C17.7047 19.1 17.7044 19.1 17.704 19.0999L17.7056 19L17.7062 19.1C17.7058 19.1 17.7055 19.1 17.7051 19.1Z" fill="#222426" stroke="#222426" stroke-width="0.2"/>
</svg>
